<svg xmlns="http://www.w3.org/2000/svg" data-name="Layer 1" viewBox="0 0 64 64"><path fill="#596c80" d="M47.8,61.4,46,59l0-21a1,1,0,0,0-1-1H19a1,1,0,0,0-1,1l0,21-1.8,2.4A1,1,0,0,0,17,63H47A1,1,0,0,0,47.8,61.4Z"/><path fill="#506173" d="M19,37H45a1,1,0,0,1,1,1V59a0,0,0,0,1,0,0H18a0,0,0,0,1,0,0V38a1,1,0,0,1,1-1Z"/><rect width="24" height="18" x="20.001" y="39" fill="#c6dcf8"/><polygon fill="#2970cc" points="33 47.5 33 41 31 41 31 47.5 27.54 47.5 32 53.872 36.46 47.5 33 47.5"/><rect width="2" height="27.735" x="8.75" y="9.632" fill="#7a8899" transform="rotate(-33.977 9.75 23.499)"/><rect width="27.735" height="2" x="40.382" y="22.5" fill="#7a8899" transform="rotate(-56.007 54.25 23.5)"/><rect width="5" height="5" x="24.5" y="29.5" fill="#1f9981" transform="rotate(180 27 32)"/><rect width="5" height="5" x="37.5" y="27.5" fill="#d9575d" transform="rotate(180 40 30)"/><rect width="5" height="5" x="31.5" y="16.5" fill="#f2b230" transform="rotate(180 34 19)"/><rect width="5" height="5" x="19.5" y="7.5" fill="#1f9981" transform="rotate(180 22 10)"/><rect width="5" height="5" x="55.5" y="2.5" fill="#f2b230" transform="rotate(180 58 5)"/><rect width="5" height="5" x="44.5" y="18.5" fill="#d9575d" transform="rotate(180 47 21)"/><rect width="7" height="7" x="29" y="1" fill="#d9575d" transform="rotate(180 32.5 4.5)"/><rect width="9" height="9" x="5" y="2" fill="#f2b230" transform="rotate(180 9.5 6.5)"/><rect width="8" height="8" x="16" y="17" fill="#d9575d" transform="rotate(180 20 21)"/><rect width="8" height="8" x="42" y="6" fill="#1f9981" transform="rotate(180 46 10)"/></svg>