<svg xmlns="http://www.w3.org/2000/svg" viewBox="0 0 128 128"><circle cx="64" cy="64" r="64" fill="#F37C5A"/><path fill="#FFF" d="M64 119.2c-4 0-8-.4-11.9-1.3l.2-1c3.8.8 7.7 1.3 11.7 1.3h2.1v1H64zm4.2-.2l-.1-1c4.6-.3 9.2-1.3 13.5-2.8l.3.9c-4.4 1.6-9 2.6-13.7 2.9zm-18-1.6c-4.6-1.2-9-2.9-13.1-5.2l.5-.9c4 2.3 8.4 4 12.8 5.2l-.2.9zm33.7-1.9l-.4-.9c4.3-1.7 8.4-3.9 12.2-6.6l.6.8c-3.9 2.8-8.1 5-12.4 6.7zm-48.6-4.3c-4-2.4-7.7-5.4-11-8.8l.7-.7c3.2 3.3 6.9 6.2 10.8 8.6l-.5.9zm62.6-3.6l-.6-.8c3.7-2.8 6.9-6.1 9.8-9.8l.8.6c-3 3.7-6.3 7.1-10 10zM23 100.9c-3.2-3.5-5.9-7.4-8-11.6l.9-.5c2.1 4.1 4.8 7.9 7.9 11.4l-.8.7zm86-4.9l-.8-.6c2.7-3.8 4.9-7.9 6.5-12.2l.9.4c-1.6 4.3-3.9 8.5-6.6 12.4zm-94.9-8.5c-2-4.3-3.5-8.8-4.3-13.4l1-.2c.8 4.5 2.3 9 4.2 13.2l-.9.4zm102.2-5.8l-.9-.3c1.5-4.4 2.4-8.9 2.7-13.6l1 .1c-.4 4.6-1.3 9.3-2.8 13.8zM9.4 72.1c-.4-2.7-.6-5.4-.6-8.1 0-2 .1-4 .3-6l1 .1c-.2 2-.3 3.9-.3 5.9 0 2.7.2 5.3.6 8l-1 .1zm109.8-6.3h-1V64c0-4-.4-8.1-1.3-12l1-.2c.9 4 1.4 8.1 1.4 12.2-.1.6-.1 1.2-.1 1.8zM10.4 56.2l-1-.1c.7-4.7 2-9.2 3.8-13.6l.9.4c-1.8 4.2-3.1 8.7-3.7 13.3zm106-6.1c-1.2-4.5-2.9-8.8-5.2-12.8l.9-.5c2.3 4.1 4.1 8.5 5.3 13l-1 .3zM14.9 41l-.9-.4c2-4.3 4.5-8.3 7.6-11.9l.8.6c-3 3.6-5.5 7.6-7.5 11.7zm95.2-5.4c-2.4-3.9-5.4-7.5-8.7-10.8l.7-.7c3.4 3.3 6.4 6.9 8.9 10.9l-.9.6zm-86.5-7.7l-.7-.7c3.1-3.5 6.7-6.6 10.7-9.2l.6.8c-4 2.6-7.5 5.6-10.6 9.1zm76.4-4.4c-3.5-3.1-7.3-5.7-11.4-7.8l.5-.9c4.2 2.1 8.1 4.8 11.6 7.9l-.7.8zm-64.3-5.7l-.5-.9c4-2.5 8.4-4.4 12.9-5.8l.3 1c-4.4 1.3-8.7 3.2-12.7 5.7zm51.1-3c-4.2-1.9-8.6-3.3-13.2-4.2l.2-1c4.6.8 9.2 2.3 13.4 4.2l-.4 1zm-36.5-3.2l-.3-1c7-1.8 14.5-2.3 21.8-1.2l-.1 1c-7.1-1.1-14.5-.6-21.4 1.2z"/><path fill="#FDDA7F" d="M68.4 30.7l.7-4.9-4-1.9c-.1-.7-.3-1.4-.6-2.1l2.5-3.6-3-3.9-4 1.5c-.6-.4-1.2-.8-1.9-1.1l-.8-4.3-4.9-.7-1.9 4c-.7.1-1.4.3-2.1.5L45 11.7l-3.9 3 1.5 4.1c-.4.6-.8 1.2-1.1 1.9l-4.3.8-.7 4.9 4 1.9c.1.7.3 1.4.6 2.1L38.6 34l3 3.9 4.1-1.5c.6.4 1.2.8 1.9 1.1l.8 4.3 4.9.7 1.9-4c.7-.1 1.4-.3 2.1-.6l3.6 2.5 3.9-3-1.8-4.1c.4-.6.8-1.2 1.1-1.9l4.3-.7zM52 31.9c-3.2-.4-5.5-3.4-5-6.6.4-3.2 3.4-5.5 6.6-5 3.2.4 5.5 3.4 5 6.6-.5 3.2-3.4 5.4-6.6 5z"/><path fill="#474F59" d="M89.3 19.5l2.6-1.6-.8-3.3-3.1-.2-.9-1.2.7-3-2.9-1.8-2.3 2c-.5-.1-1-.2-1.5-.2l-1.6-2.6-3.3.8-.2 3-1.2.9-3-.7-1.8 3 2 2.3c-.1.5-.2 1-.2 1.5L69.2 20l.8 3.3 3.1.2c.3.4.5.8.9 1.2l-.7 3 2.9 1.8 2.3-2c.5.1 1 .2 1.5.2l1.6 2.6 3.3-.8.2-3.1 1.2-.9 3 .7 1.8-2.9-2-2.3c.1-.5.2-1 .2-1.5zm-7.8 3.3c-2.1.5-4.3-.8-4.8-2.9-.5-2.1.8-4.3 2.9-4.8 2.1-.5 4.3.8 4.8 2.9.5 2.1-.8 4.3-2.9 4.8z"/><path fill="#DAD9D8" d="M50.6 102.7h26.7v6.9H50.6z"/><path fill="#474F59" d="M108.1 89.2V38.7c0-1.6-1.3-2.9-2.9-2.9H22.8c-1.6 0-2.9 1.3-2.9 2.9v50.5h88.2z"/><path fill="#F3F3F3" d="M19.9 89.2V101c0 1.6 1.3 2.9 2.9 2.9h82.4c1.6 0 2.9-1.3 2.9-2.9V89.2H19.9zM24.5 40.7h78.9v43.2H24.5zM86.1 113.1H41.9c0-1.3.5-2.5 1.4-3.4.9-.9 2.1-1.4 3.4-1.4h34.6c2.7 0 4.8 2.2 4.8 4.8z"/><circle cx="64" cy="96.6" r="2.4" fill="#474F59"/><path fill="#DAD9D8" d="M28.7 44.6h3.9v36h-3.9z"/><path fill="#7DCEDC" d="M28.7 65.7h3.9v14.9h-3.9z"/><path fill="#DAD9D8" d="M34.5 44.6h3.9v36h-3.9z"/><path fill="#7DCEDC" d="M34.5 62.8h3.9v17.8h-3.9z"/><path fill="#DAD9D8" d="M40.2 44.6h3.9v36h-3.9z"/><path fill="#7DCEDC" d="M40.2 57.5h3.9v23.1h-3.9z"/><path fill="#DAD9D8" d="M45.9 44.6h3.9v36h-3.9z"/><path fill="#7DCEDC" d="M45.9 68.7h3.9v11.9h-3.9z"/><path fill="#DAD9D8" d="M51.6 44.6h3.9v36h-3.9z"/><path fill="#7DCEDC" d="M51.6 72.2h3.9v8.4h-3.9z"/><path fill="#DAD9D8" d="M57.3 44.6h3.9v36h-3.9z"/><path fill="#7DCEDC" d="M57.3 60.6h3.9v20h-3.9z"/><g><path fill="#DAD9D8" d="M63 44.6h3.9v36H63z"/><path fill="#7DCEDC" d="M63 65h3.9v15.6H63z"/></g><g><path fill="#DAD9D8" d="M68.8 44.6h3.9v36h-3.9z"/><path fill="#7DCEDC" d="M68.8 50.6h3.9v30h-3.9z"/></g><g><path fill="#F37C5A" d="M78.4 48.2h10.3v1.6H78.4z"/><path fill="#DAD9D8" d="M78.4 51.9h21.2v1.6H78.4zM78.4 55.7h21.2v1.6H78.4zM78.4 59.5h21.2v1.6H78.4z"/></g></svg>