<svg xmlns="http://www.w3.org/2000/svg" enable-background="new 0 0 64 64" viewBox="0 0 64 64"><rect width="6.357" height="6.357" x="12.549" y="12.646" fill="#f9dd9d"/><path fill="#63312d" d="M18.906,19.503h-6.356c-0.276,0-0.5-0.224-0.5-0.5v-6.357c0-0.276,0.224-0.5,0.5-0.5h6.356
		c0.276,0,0.5,0.224,0.5,0.5v6.357C19.406,19.279,19.182,19.503,18.906,19.503z M13.049,18.503h5.356v-5.357h-5.356V18.503z"/><rect width="6.357" height="6.357" x="12.549" y="4.229" fill="#f9dd9d"/><path fill="#63312d" d="M18.906,11.086h-6.356c-0.276,0-0.5-0.224-0.5-0.5V4.229c0-0.276,0.224-0.5,0.5-0.5h6.356
		c0.276,0,0.5,0.224,0.5,0.5v6.356C19.406,10.862,19.182,11.086,18.906,11.086z M13.049,10.086h5.356V4.729h-5.356V10.086z"/><rect width="6.357" height="6.357" x="12.549" y="21.063" fill="#f9dd9d"/><path fill="#63312d" d="M18.906,27.919h-6.356c-0.276,0-0.5-0.224-0.5-0.5v-6.356c0-0.276,0.224-0.5,0.5-0.5h6.356
		c0.276,0,0.5,0.224,0.5,0.5v6.356C19.406,27.696,19.182,27.919,18.906,27.919z M13.049,26.919h5.356v-5.356h-5.356V26.919z"/><rect width="6.357" height="6.357" x="12.549" y="29.479" fill="#f9dd9d"/><path fill="#63312d" d="M18.906,36.336h-6.356c-0.276,0-0.5-0.224-0.5-0.5v-6.356c0-0.276,0.224-0.5,0.5-0.5h6.356
		c0.276,0,0.5,0.224,0.5,0.5v6.356C19.406,36.112,19.182,36.336,18.906,36.336z M13.049,35.336h5.356v-5.356h-5.356V35.336z"/><rect width="6.357" height="6.357" x="12.549" y="37.896" fill="#f9dd9d"/><path fill="#63312d" d="M18.906,44.753h-6.356c-0.276,0-0.5-0.224-0.5-0.5v-6.357c0-0.276,0.224-0.5,0.5-0.5h6.356
		c0.276,0,0.5,0.224,0.5,0.5v6.357C19.406,44.529,19.182,44.753,18.906,44.753z M13.049,43.753h5.356v-5.357h-5.356V43.753z"/><rect width="6.357" height="6.357" x="37.756" y="37.896" fill="#f9dd9d"/><path fill="#63312d" d="M44.112,44.753h-6.356c-0.276,0-0.5-0.224-0.5-0.5v-6.357c0-0.276,0.224-0.5,0.5-0.5h6.356
		c0.276,0,0.5,0.224,0.5,0.5v6.357C44.612,44.529,44.389,44.753,44.112,44.753z M38.256,43.753h5.356v-5.357h-5.356V43.753z"/><rect width="6.357" height="6.357" x="37.756" y="46.313" fill="#f9dd9d"/><path fill="#63312d" d="M44.112,53.169h-6.356c-0.276,0-0.5-0.224-0.5-0.5v-6.356c0-0.276,0.224-0.5,0.5-0.5h6.356
		c0.276,0,0.5,0.224,0.5,0.5v6.356C44.612,52.946,44.389,53.169,44.112,53.169z M38.256,52.169h5.356v-5.356h-5.356V52.169z"/><rect width="6.357" height="6.357" x="37.756" y="4.229" fill="#f9dd9d"/><path fill="#63312d" d="M44.112,11.086h-6.356c-0.276,0-0.5-0.224-0.5-0.5V4.229c0-0.276,0.224-0.5,0.5-0.5h6.356
		c0.276,0,0.5,0.224,0.5,0.5v6.356C44.612,10.862,44.389,11.086,44.112,11.086z M38.256,10.086h5.356V4.729h-5.356V10.086z"/><rect width="6.357" height="6.357" x="37.756" y="12.646" fill="#f9dd9d"/><path fill="#63312d" d="M44.112,19.503h-6.356c-0.276,0-0.5-0.224-0.5-0.5v-6.357c0-0.276,0.224-0.5,0.5-0.5h6.356
		c0.276,0,0.5,0.224,0.5,0.5v6.357C44.612,19.279,44.389,19.503,44.112,19.503z M38.256,18.503h5.356v-5.357h-5.356V18.503z"/><rect width="6.357" height="6.357" x="29.349" y="12.646" fill="#f9dd9d"/><path fill="#63312d" d="M35.706,19.503H29.35c-0.276,0-0.5-0.224-0.5-0.5v-6.357c0-0.276,0.224-0.5,0.5-0.5h6.356
		c0.276,0,0.5,0.224,0.5,0.5v6.357C36.206,19.279,35.982,19.503,35.706,19.503z M29.85,18.503h5.356v-5.357H29.85V18.503z"/><rect width="6.357" height="6.357" x="20.943" y="12.646" fill="#f9dd9d"/><path fill="#63312d" d="M27.3,19.503h-6.356c-0.276,0-0.5-0.224-0.5-0.5v-6.357c0-0.276,0.224-0.5,0.5-0.5H27.3
		c0.276,0,0.5,0.224,0.5,0.5v6.357C27.8,19.279,27.576,19.503,27.3,19.503z M21.443,18.503H26.8v-5.357h-5.356V18.503z"/><rect width="6.357" height="6.357" x="46.131" y="12.646" fill="#f9dd9d"/><path fill="#63312d" d="M52.487,19.503h-6.356c-0.276,0-0.5-0.224-0.5-0.5v-6.357c0-0.276,0.224-0.5,0.5-0.5h6.356
		c0.276,0,0.5,0.224,0.5,0.5v6.357C52.987,19.279,52.764,19.503,52.487,19.503z M46.631,18.503h5.356v-5.357h-5.356V18.503z"/><rect width="6.357" height="6.357" x="46.131" y="21.063" fill="#f9dd9d"/><path fill="#63312d" d="M52.487,27.919h-6.356c-0.276,0-0.5-0.224-0.5-0.5v-6.356c0-0.276,0.224-0.5,0.5-0.5h6.356
		c0.276,0,0.5,0.224,0.5,0.5v6.356C52.987,27.696,52.764,27.919,52.487,27.919z M46.631,26.919h5.356v-5.356h-5.356V26.919z"/><rect width="6.357" height="6.357" x="46.131" y="29.479" fill="#f9dd9d"/><path fill="#63312d" d="M52.487,36.336h-6.356c-0.276,0-0.5-0.224-0.5-0.5v-6.356c0-0.276,0.224-0.5,0.5-0.5h6.356
		c0.276,0,0.5,0.224,0.5,0.5v6.356C52.987,36.112,52.764,36.336,52.487,36.336z M46.631,35.336h5.356v-5.356h-5.356V35.336z"/><rect width="6.357" height="6.357" x="46.131" y="37.896" fill="#f9dd9d"/><path fill="#63312d" d="M52.487,44.753h-6.356c-0.276,0-0.5-0.224-0.5-0.5v-6.357c0-0.276,0.224-0.5,0.5-0.5h6.356
		c0.276,0,0.5,0.224,0.5,0.5v6.357C52.987,44.529,52.764,44.753,52.487,44.753z M46.631,43.753h5.356v-5.357h-5.356V43.753z"/><circle cx="30.311" cy="32.113" r="15.445" fill="#84dbff"/><path fill="#a9ebff" d="M17.083,32.113c0-8.156,6.326-14.819,14.337-15.389c-0.367-0.026-0.734-0.056-1.108-0.056
		c-8.53,0-15.445,6.915-15.445,15.445c0,8.53,6.915,15.445,15.445,15.445c0.374,0,0.741-0.03,1.108-0.056
		C23.409,46.931,17.083,40.268,17.083,32.113z"/><path fill="#63312d" d="M30.311,48.057c-8.792,0-15.945-7.153-15.945-15.945s7.153-15.945,15.945-15.945
		c8.792,0,15.945,7.153,15.945,15.945S39.103,48.057,30.311,48.057z M30.311,17.168c-8.241,0-14.945,6.704-14.945,14.945
		s6.704,14.945,14.945,14.945s14.945-6.704,14.945-14.945S38.552,17.168,30.311,17.168z"/><circle cx="30.311" cy="32.113" r="10.623" fill="#faf5f5"/><path fill="#63312d" d="M30.311,43.236c-6.133,0-11.123-4.99-11.123-11.123s4.99-11.123,11.123-11.123s11.123,4.99,11.123,11.123
		S36.444,43.236,30.311,43.236z M30.311,21.99c-5.582,0-10.123,4.541-10.123,10.123s4.541,10.123,10.123,10.123
		c5.582,0,10.123-4.541,10.123-10.123S35.893,21.99,30.311,21.99z"/><path fill="#52badb" d="M35.388,16.668h-5.077c8.53,0,15.445,6.915,15.445,15.445c0,8.53-6.915,15.445-15.445,15.445h5.077
		c8.53,0,15.445-6.915,15.445-15.445C50.833,23.583,43.918,16.668,35.388,16.668z"/><path fill="#63312d" d="M35.389,48.057h-5.078c-0.276,0-0.5-0.224-0.5-0.5s0.224-0.5,0.5-0.5c8.241,0,14.945-6.704,14.945-14.945
		s-6.704-14.945-14.945-14.945c-0.276,0-0.5-0.224-0.5-0.5s0.224-0.5,0.5-0.5h5.078c8.792,0,15.944,7.153,15.944,15.945
		S44.181,48.057,35.389,48.057z M35.893,17.176c6.047,2.268,10.362,8.107,10.362,14.937S41.94,44.781,35.893,47.049
		c8.008-0.267,14.439-6.865,14.439-14.937S43.901,17.443,35.893,17.176z"/><path fill="#f9a287" d="M17.939,41.33L4.858,51.53c-2.184,1.703-2.383,4.933-0.425,6.891s5.189,1.759,6.891-0.425l10.254-13.15
		C20.177,43.884,18.954,42.69,17.939,41.33z"/><path fill="#fcb7a4" d="M6.016,58.421c-1.958-1.958-1.759-5.188,0.425-6.891l12.111-9.443c-0.209-0.248-0.418-0.496-0.613-0.757
		L4.858,51.53c-2.184,1.703-2.383,4.933-0.425,6.891c1.103,1.103,2.607,1.498,4.017,1.262C7.563,59.523,6.709,59.114,6.016,58.421z"/><path fill="#63312d" d="M7.691,60.271c-1.35,0-2.651-0.536-3.612-1.496c-1.035-1.034-1.576-2.465-1.486-3.925
		c0.09-1.46,0.804-2.814,1.958-3.714l13.082-10.2c0.106-0.083,0.239-0.12,0.375-0.101c0.133,0.018,0.253,0.089,0.334,0.197
		c1,1.339,2.184,2.484,3.521,3.403c0.114,0.078,0.19,0.2,0.211,0.336s-0.015,0.275-0.1,0.384l-10.253,13.15
		c-0.9,1.153-2.253,1.867-3.713,1.957C7.9,60.268,7.795,60.271,7.691,60.271z M17.85,42.034L5.165,51.925
		c-0.928,0.724-1.502,1.812-1.575,2.987c-0.072,1.174,0.363,2.325,1.195,3.157c0.833,0.832,1.986,1.267,3.158,1.195
		c1.174-0.072,2.263-0.646,2.986-1.574l9.933-12.739C19.745,44.125,18.735,43.147,17.85,42.034z"/><path fill="#63312d" d="M7.691,60.271c-1.35,0-2.651-0.536-3.612-1.496c-1.035-1.034-1.576-2.465-1.486-3.925
		c0.09-1.46,0.804-2.814,1.958-3.714l13.082-10.2c0.106-0.083,0.239-0.12,0.375-0.101c0.133,0.018,0.253,0.089,0.334,0.197
		c1,1.339,2.184,2.484,3.521,3.403c0.114,0.078,0.19,0.2,0.211,0.336s-0.015,0.275-0.1,0.384l-10.253,13.15
		c-0.9,1.153-2.253,1.867-3.713,1.957C7.9,60.268,7.795,60.271,7.691,60.271z M17.85,42.034L5.165,51.925
		c-0.928,0.724-1.502,1.812-1.575,2.987c-0.072,1.174,0.363,2.325,1.195,3.157c0.833,0.832,1.986,1.267,3.158,1.195
		c1.174-0.072,2.263-0.646,2.986-1.574l9.933-12.739C19.745,44.125,18.735,43.147,17.85,42.034z"/><path fill="#db785a" d="M24.811,46.531c-1.413-0.539-2.723-1.279-3.901-2.187c0.22,0.17,0.438,0.344,0.668,0.502l-10.254,13.15
		c-0.941,1.207-2.348,1.784-3.749,1.749l-0.009,0.025h4.659c1.374,0.009,2.744-0.591,3.667-1.774l8.925-11.446L24.811,46.531z"/><path fill="#63312d" d="M12.256,60.271c-0.012,0-0.024,0-0.036,0H7.565c-0.164,0-0.317-0.08-0.411-0.215
		c-0.093-0.134-0.115-0.306-0.058-0.459c0.075-0.2,0.272-0.334,0.49-0.351c1.309,0.032,2.546-0.535,3.343-1.557l9.937-12.745
		c-0.048-0.038-0.097-0.075-0.146-0.113l-0.118-0.091c-0.218-0.169-0.258-0.482-0.09-0.701c0.168-0.218,0.48-0.26,0.701-0.09
		c1.155,0.889,2.424,1.601,3.774,2.115c0.157,0.06,0.273,0.194,0.31,0.357l0.004,0.02c0.033,0.146-0.001,0.299-0.093,0.417
		l-8.925,11.446C15.309,59.555,13.842,60.271,12.256,60.271z M10.725,59.271h1.5c1.304-0.037,2.481-0.567,3.272-1.582l8.528-10.938
		c-0.809-0.348-1.588-0.763-2.33-1.242l-9.976,12.795C11.429,58.676,11.094,59,10.725,59.271z"/><polygon fill="#f9a287" points="36.542 31.04 31.219 31.04 31.219 25.717 29.073 25.717 29.073 31.04 23.75 31.04 23.75 33.185 29.073 33.185 29.073 38.508 31.219 38.508 31.219 33.185 36.542 33.185"/><path fill="#63312d" d="M31.219,39.009h-2.146c-0.276,0-0.5-0.224-0.5-0.5v-4.823H23.75c-0.276,0-0.5-0.224-0.5-0.5V31.04
		c0-0.276,0.224-0.5,0.5-0.5h4.823v-4.823c0-0.276,0.224-0.5,0.5-0.5h2.146c0.276,0,0.5,0.224,0.5,0.5v4.823h4.823
		c0.276,0,0.5,0.224,0.5,0.5v2.146c0,0.276-0.224,0.5-0.5,0.5h-4.823v4.823C31.719,38.785,31.495,39.009,31.219,39.009z
		 M29.573,38.009h1.146v-4.823c0-0.276,0.224-0.5,0.5-0.5h4.823V31.54h-4.823c-0.276,0-0.5-0.224-0.5-0.5v-4.823h-1.146v4.823
		c0,0.276-0.224,0.5-0.5,0.5H24.25v1.146h4.823c0.276,0,0.5,0.224,0.5,0.5V38.009z"/><rect width="6.357" height="6.357" x="54.56" y="4.229" fill="#f9dd9d"/><path fill="#63312d" d="M60.917,11.086H54.56c-0.276,0-0.5-0.224-0.5-0.5V4.229c0-0.276,0.224-0.5,0.5-0.5h6.357
		c0.276,0,0.5,0.224,0.5,0.5v6.356C61.417,10.862,61.193,11.086,60.917,11.086z M55.06,10.086h5.357V4.729H55.06V10.086z"/><rect width="6.357" height="6.357" x="54.56" y="12.646" fill="#f9dd9d"/><path fill="#63312d" d="M60.917,19.503H54.56c-0.276,0-0.5-0.224-0.5-0.5v-6.357c0-0.276,0.224-0.5,0.5-0.5h6.357
		c0.276,0,0.5,0.224,0.5,0.5v6.357C61.417,19.279,61.193,19.503,60.917,19.503z M55.06,18.503h5.357v-5.357H55.06V18.503z"/><rect width="6.357" height="6.357" x="54.56" y="21.063" fill="#f9dd9d"/><path fill="#63312d" d="M60.917,27.919H54.56c-0.276,0-0.5-0.224-0.5-0.5v-6.356c0-0.276,0.224-0.5,0.5-0.5h6.357
		c0.276,0,0.5,0.224,0.5,0.5v6.356C61.417,27.696,61.193,27.919,60.917,27.919z M55.06,26.919h5.357v-5.356H55.06V26.919z"/><rect width="6.357" height="6.357" x="54.56" y="29.479" fill="#f9dd9d"/><path fill="#63312d" d="M60.917,36.336H54.56c-0.276,0-0.5-0.224-0.5-0.5v-6.356c0-0.276,0.224-0.5,0.5-0.5h6.357
		c0.276,0,0.5,0.224,0.5,0.5v6.356C61.417,36.112,61.193,36.336,60.917,36.336z M55.06,35.336h5.357v-5.356H55.06V35.336z"/><rect width="6.357" height="6.357" x="54.56" y="37.896" fill="#f9dd9d"/><path fill="#63312d" d="M60.917,44.753H54.56c-0.276,0-0.5-0.224-0.5-0.5v-6.357c0-0.276,0.224-0.5,0.5-0.5h6.357
		c0.276,0,0.5,0.224,0.5,0.5v6.357C61.417,44.529,61.193,44.753,60.917,44.753z M55.06,43.753h5.357v-5.357H55.06V43.753z"/><rect width="6.357" height="6.357" x="54.56" y="46.313" fill="#f9dd9d"/><path fill="#63312d" d="M60.917,53.169H54.56c-0.276,0-0.5-0.224-0.5-0.5v-6.356c0-0.276,0.224-0.5,0.5-0.5h6.357
		c0.276,0,0.5,0.224,0.5,0.5v6.356C61.417,52.946,61.193,53.169,60.917,53.169z M55.06,52.169h5.357v-5.356H55.06V52.169z"/></svg>