<svg xmlns="http://www.w3.org/2000/svg" enable-background="new 0 0 68 68" viewBox="0 0 68 68"><linearGradient id="a" x1="2.002" x2="60.593" y1="27.195" y2="27.195" gradientUnits="userSpaceOnUse"><stop offset="0" stop-color="#476870"/><stop offset=".282" stop-color="#4b6c74"/><stop offset=".589" stop-color="#587880"/><stop offset=".906" stop-color="#6e8d94"/><stop offset="1" stop-color="#76949b"/></linearGradient><path fill="url(#a)" d="M7.7256222,5.8986049H3.9470344c-1.0700688,0-1.9454091,0.8753405-1.9454091,1.9451408V48.490818h5.7239971V5.8986049z"/><path fill="#e0e0e0" d="M7.7256222,48.490818H2.0016253v4.4747353c0,1.0703392,0.8753402,1.9456787,1.9454091,1.9456787h3.7785878V48.490818z"/><polygon fill="#e0e0e0" points="39.911 60.432 22.683 60.432 24.377 53.985 38.218 53.985"/><path fill="#e0e0e0" d="M41.6243629,60.4322777H20.9698658c-0.4621029,0-0.8367004,0.3745956-0.8367004,0.8367004c0,0.462162,0.3745975,0.8367577,0.8367004,0.8367577h20.6544971c0.4621048,0,0.8367615-0.3745956,0.8367615-0.8367577C42.4611244,60.8068733,42.0864677,60.4322777,41.6243629,60.4322777z"/><polygon fill="#f9f9f9" points="41.09 60.432 23.862 60.432 25.555 53.985 39.396 53.985"/><path fill="#627e87" d="M61.7728195,7.8404193v40.6461601H3.184633V7.8404193c0-1.0667553,0.8758948-1.9427733,1.9431422-1.9427733h54.7020264C60.8969231,5.897646,61.7728195,6.773664,61.7728195,7.8404193z"/><path fill="#476870" d="M61.7753754,7.8406782v40.65028h-5.530323L13.6859617,5.8942637h46.1427269c0.5530319,0,1.061779,0.243032,1.4157944,0.6302624C61.576088,6.8674712,61.7753754,7.3319316,61.7753754,7.8406782z"/><linearGradient id="b" x1="16.259" x2="67.918" y1="19.229" y2="44.604" gradientUnits="userSpaceOnUse"><stop offset=".263" stop-color="#31bfff"/><stop offset=".398" stop-color="#35c3ff"/><stop offset=".545" stop-color="#42cdff"/><stop offset=".697" stop-color="#58deff"/><stop offset=".708" stop-color="#5ae0ff"/></linearGradient><rect width="54.7" height="38.701" x="5.126" y="7.844" fill="url(#b)"/><path fill="#fff" d="M58.7308006,9.9045992v34.5705833c0,0.5373116-0.4387436,0.9760551-0.9763222,0.9760551H7.1880431c-0.526597,0-0.9654722-0.4387436-0.9654722-0.9760551V9.9045992c0-0.526597,0.4388752-0.9653387,0.9654722-0.9653387h50.5772858C58.292057,8.9392605,58.7308006,9.3780022,58.7308006,9.9045992z"/><polygon fill="#e0e0e0" points="24.375 54.012 23.79 56.475 39.98 56.475 39.392 54.012"/><path fill="#f9f9f9" d="M61.7728195,48.4598351v4.4803734c0,1.0672493-0.8758965,1.9432678-1.9430199,1.9432678H5.1277752c-1.0672474,0-1.9431422-0.8760185-1.9431422-1.9432678v-4.4803734H61.7728195z"/><circle cx="32.478" cy="51.672" r="1.049" fill="#e0e0e0"/><path fill="#efefef" d="M42.8030968,60.4322777h-20.654501c-0.462101,0-0.8366985,0.3745956-0.8366985,0.8367004c0,0.462162,0.3745975,0.8367577,0.8366985,0.8367577h20.654501c0.462101,0,0.8367577-0.3745956,0.8367577-0.8367577C43.6398544,60.8068733,43.2651978,60.4322777,42.8030968,60.4322777z"/><g><linearGradient id="c" x1="7.889" x2="8.997" y1="11.34" y2="11.34" gradientUnits="userSpaceOnUse"><stop offset="0" stop-color="#ffe05f"/><stop offset=".175" stop-color="#ffd24e"/><stop offset=".464" stop-color="#ffc038"/><stop offset=".743" stop-color="#ffb52b"/><stop offset="1" stop-color="#ffb127"/></linearGradient><path fill="url(#c)" d="M8.996932,11.3395901c0,0.3040009-0.2546902,0.5491161-0.5586901,0.5491161c-0.3040009,0-0.5491161-0.2451153-0.5491161-0.5491161s0.2451153-0.5491161,0.5491161-0.5491161C8.7422419,10.7904739,8.996932,11.0355892,8.996932,11.3395901z"/><linearGradient id="d" x1="9.596" x2="10.704" y1="11.34" y2="11.34" gradientUnits="userSpaceOnUse"><stop offset=".004" stop-color="#6ac163"/><stop offset=".39" stop-color="#6ec567"/><stop offset=".809" stop-color="#7ad074"/><stop offset="1" stop-color="#82d77d"/></linearGradient><path fill="url(#d)" d="M10.7040892,11.3395901c0,0.3040009-0.2546902,0.5491161-0.558691,0.5491161c-0.3039999,0-0.5491152-0.2451153-0.5491152-0.5491161s0.2451153-0.5491161,0.5491152-0.5491161C10.449399,10.7904739,10.7040892,11.0355892,10.7040892,11.3395901z"/><linearGradient id="e" x1="11.303" x2="12.411" y1="11.34" y2="11.34" gradientUnits="userSpaceOnUse"><stop offset="0" stop-color="#6542b2"/><stop offset=".289" stop-color="#6946b6"/><stop offset=".603" stop-color="#7653c1"/><stop offset=".928" stop-color="#8a69d3"/><stop offset="1" stop-color="#906fd8"/></linearGradient><path fill="url(#e)" d="M12.4112463,11.3395901c0,0.3040009-0.2546902,0.5491161-0.558691,0.5491161s-0.5491161-0.2451153-0.5491161-0.5491161s0.2451153-0.5491161,0.5491161-0.5491161S12.4112463,11.0355892,12.4112463,11.3395901z"/></g><g><linearGradient id="f" x1="46.477" x2="49.705" y1="23.371" y2="23.371" gradientUnits="userSpaceOnUse"><stop offset="0" stop-color="#15a0ff"/><stop offset=".23" stop-color="#19a4ff"/><stop offset=".48" stop-color="#26b0ff"/><stop offset=".739" stop-color="#3cc4ff"/><stop offset="1" stop-color="#5ae0ff"/></linearGradient><path fill="url(#f)" d="M49.7053909,20.1447735v6.4520512c0,0.3029346-0.2479172,0.5509872-0.5509872,0.5509872h-2.1268082c-0.3030357,0-0.5509872-0.2480526-0.5509872-0.5509872v-6.4520512c0-0.3085861,0.2479515-0.5509892,0.5509872-0.5509892h2.1268082C49.4574738,19.5937843,49.7053909,19.8361874,49.7053909,20.1447735z"/><linearGradient id="g" x1="51.799" x2="55.022" y1="21.541" y2="21.541" gradientUnits="userSpaceOnUse"><stop offset="0" stop-color="#ffe05f"/><stop offset=".175" stop-color="#ffd24e"/><stop offset=".464" stop-color="#ffc038"/><stop offset=".743" stop-color="#ffb52b"/><stop offset="1" stop-color="#ffb127"/></linearGradient><path fill="url(#g)" d="M55.0224419,16.4861355v10.1106892c0,0.3029346-0.2479515,0.5509872-0.5509872,0.5509872h-2.1212921c-0.3030701,0-0.5509872-0.2480526-0.5509872-0.5509872V16.4861355c0-0.3030701,0.2479172-0.5509882,0.5509872-0.5509882h2.1212921C54.7744904,15.9351473,55.0224419,16.1830654,55.0224419,16.4861355z"/><linearGradient id="h" x1="35.837" x2="39.066" y1="25.043" y2="25.043" gradientUnits="userSpaceOnUse"><stop offset=".004" stop-color="#6ac163"/><stop offset=".39" stop-color="#6ec567"/><stop offset=".809" stop-color="#7ad074"/><stop offset="1" stop-color="#82d77d"/></linearGradient><path fill="url(#h)" d="M39.0658112,23.4891739v3.1076508c0,0.3029346-0.2479172,0.5509872-0.5509911,0.5509872h-2.1268044c-0.3030357,0-0.5509872-0.2480526-0.5509872-0.5509872v-3.1076508c0-0.3085842,0.2479515-0.5509872,0.5509872-0.5509872h2.1268044C38.817894,22.9381866,39.0658112,23.1805897,39.0658112,23.4891739z"/><linearGradient id="i" x1="37.221" x2="53.639" y1="15.639" y2="15.639" gradientUnits="userSpaceOnUse"><stop offset="0" stop-color="#476870"/><stop offset="1" stop-color="#76949b"/></linearGradient><path fill="url(#i)" d="M37.4503326,18.9624557c-0.0683784,0-0.1358604-0.0303898-0.1809959-0.0887108c-0.0773125-0.0998821-0.0589905-0.2435608,0.0406685-0.3208752l5.320816-4.1222258c0.066143-0.0509472,0.1541824-0.0621195,0.2297096-0.0297194l4.7291183,2.0108376l5.6881714-4.0547447c0.1023407-0.0726213,0.2453499-0.0498295,0.319088,0.053628c0.0732918,0.102788,0.04916,0.2457962-0.053627,0.3190889l-5.7923012,4.1291523c-0.0648003,0.0462551-0.148819,0.0556393-0.2221107,0.0241337l-4.7237549-2.0086021l-5.2144547,4.0399952C37.5486488,18.9468136,37.4994926,18.9624557,37.4503326,18.9624557z"/><linearGradient id="j" x1="36.063" x2="38.465" y1="18.734" y2="18.734" gradientUnits="userSpaceOnUse"><stop offset=".004" stop-color="#6ac163"/><stop offset=".39" stop-color="#6ec567"/><stop offset=".809" stop-color="#7ad074"/><stop offset="1" stop-color="#82d77d"/></linearGradient><circle cx="37.264" cy="18.734" r="1.201" fill="url(#j)"/><linearGradient id="k" x1="46.405" x2="48.808" y1="16.492" y2="16.492" gradientUnits="userSpaceOnUse"><stop offset="0" stop-color="#15a0ff"/><stop offset=".23" stop-color="#19a4ff"/><stop offset=".48" stop-color="#26b0ff"/><stop offset=".739" stop-color="#3cc4ff"/><stop offset="1" stop-color="#5ae0ff"/></linearGradient><circle cx="47.606" cy="16.492" r="1.201" fill="url(#k)"/><linearGradient id="l" x1="41.567" x2="43.97" y1="14.613" y2="14.613" gradientUnits="userSpaceOnUse"><stop offset="0" stop-color="#6542b2"/><stop offset=".289" stop-color="#6946b6"/><stop offset=".603" stop-color="#7653c1"/><stop offset=".928" stop-color="#8a69d3"/><stop offset="1" stop-color="#906fd8"/></linearGradient><circle cx="42.768" cy="14.613" r="1.201" fill="url(#l)"/><linearGradient id="m" x1="52.207" x2="54.609" y1="12.541" y2="12.541" gradientUnits="userSpaceOnUse"><stop offset="0" stop-color="#ffe05f"/><stop offset=".175" stop-color="#ffd24e"/><stop offset=".464" stop-color="#ffc038"/><stop offset=".743" stop-color="#ffb52b"/><stop offset="1" stop-color="#ffb127"/></linearGradient><circle cx="53.408" cy="12.541" r="1.201" fill="url(#m)"/><g><linearGradient id="n" x1="41.16" x2="44.383" y1="22.718" y2="22.718" gradientUnits="userSpaceOnUse"><stop offset="0" stop-color="#6542b2"/><stop offset=".289" stop-color="#6946b6"/><stop offset=".603" stop-color="#7653c1"/><stop offset=".928" stop-color="#8a69d3"/><stop offset="1" stop-color="#906fd8"/></linearGradient><path fill="url(#n)" d="M44.3828583,18.8388672v7.7579575c0,0.3029346-0.2479477,0.5509872-0.5509872,0.5509872h-2.1212921c-0.3030701,0-0.5509872-0.2480526-0.5509872-0.5509872v-7.7579575c0-0.303072,0.2479172-0.5509892,0.5509872-0.5509892h2.1212921C44.1349106,18.287878,44.3828583,18.5357952,44.3828583,18.8388672z"/></g><g><rect width="24.396" height=".461" x="9.174" y="17.789" fill="#efefef" transform="rotate(-180 21.372 18.019)"/><rect width="24.396" height=".461" x="9.174" y="19.568" fill="#efefef" transform="rotate(-180 21.372 19.799)"/><rect width="24.396" height=".461" x="9.174" y="21.348" fill="#efefef" transform="rotate(-180 21.372 21.578)"/><rect width="24.396" height=".461" x="9.174" y="23.128" fill="#efefef" transform="rotate(-180 21.372 23.358)"/><rect width="24.396" height=".461" x="9.174" y="24.907" fill="#efefef" transform="rotate(-180 21.372 25.138)"/><rect width="24.396" height=".461" x="9.174" y="26.687" fill="#efefef" transform="rotate(-180 21.372 26.917)"/></g></g><g><linearGradient id="o" x1="9.174" x2="24.66" y1="36.058" y2="36.058" gradientUnits="userSpaceOnUse"><stop offset=".004" stop-color="#6ac163"/><stop offset=".39" stop-color="#6ec567"/><stop offset=".809" stop-color="#7ad074"/><stop offset="1" stop-color="#82d77d"/></linearGradient><path fill="url(#o)" d="M24.6598949,30.230875v11.6551991c0,0.5432777-0.438345,0.9816208-0.9816208,0.9816208H10.154995c-0.5430441,0-0.9813871-0.438343-0.9813871-0.9816208V30.230875c0-0.5432758,0.438343-0.9816189,0.9813871-0.9816189h13.5232792C24.22155,29.2492561,24.6598949,29.6875992,24.6598949,30.230875z"/><rect width="1.195" height="2.062" x="13.639" y="38.251" fill="#fff"/><rect width="1.195" height="2.786" x="15.425" y="37.527" fill="#fff"/><rect width="1.195" height="3.716" x="17.21" y="36.597" fill="#fff"/><rect width="1.195" height="1.332" x="11.854" y="38.982" fill="#fff"/><rect width="1.199" height="5.01" x="18.995" y="35.303" fill="#fff"/><rect width="1.195" height="6.512" x="20.784" y="33.801" fill="#fff"/><path fill="#fff" d="M21.0865955,31.956316L20.954258,33.08741c-0.014143,0.1098671-0.143177,0.1604271-0.2250118,0.0887566l-0.3543072-0.3025894c-3.1998005,3.5767288-7.9279184,4.9881783-8.2571249,5.0061264l-0.0188627-0.0018883c-0.0566645-0.0056763-0.1029367-0.0515938-0.1063862-0.1124687c-0.0031586-0.063797,0.0469294-0.1191559,0.1139593-0.1220665c0.3068323-0.0169296,4.9883718-1.4712219,8.0927877-4.9207649l-0.436142-0.3742561c-0.0817966-0.0716705-0.0525303-0.2054787,0.0523052-0.2364235l1.1015263-0.3028736C21.0085545,31.7832069,21.0995159,31.8590546,21.0865955,31.956316z"/></g><g><rect width="27.619" height=".461" x="27.404" y="31.379" fill="#efefef" transform="rotate(-180 41.213 31.61)"/><rect width="27.619" height=".461" x="27.404" y="33.159" fill="#efefef" transform="rotate(-180 41.213 33.389)"/><rect width="27.619" height=".461" x="27.404" y="34.938" fill="#efefef" transform="rotate(-180 41.213 35.169)"/><rect width="27.619" height=".461" x="27.404" y="36.718" fill="#efefef" transform="rotate(-180 41.213 36.948)"/><rect width="27.619" height=".461" x="27.404" y="38.498" fill="#efefef" transform="rotate(-180 41.213 38.728)"/><rect width="27.619" height=".461" x="27.404" y="40.277" fill="#efefef" transform="rotate(-180 41.213 40.508)"/></g><g><linearGradient id="p" x1="55.566" x2="55.532" y1="46.541" y2="45.281" gradientUnits="userSpaceOnUse"><stop offset="0" stop-color="#ffe05f"/><stop offset=".175" stop-color="#ffd24e"/><stop offset=".464" stop-color="#ffc038"/><stop offset=".743" stop-color="#ffb52b"/><stop offset="1" stop-color="#ffb127"/></linearGradient><rect width="16.582" height="1.045" x="47.255" y="45.281" fill="url(#p)"/><linearGradient id="q" x1="45.094" x2="65.998" y1="42.029" y2="42.029" gradientUnits="userSpaceOnUse"><stop offset="0" stop-color="#476870"/><stop offset="1" stop-color="#76949b"/></linearGradient><path fill="url(#q)" d="M65.9983749,39.5454254v4.9677811c0,0.4309082-0.3500519,0.7674866-0.7674866,0.7674866H45.86129c-0.430912,0-0.7674866-0.3365784-0.7674866-0.7674866v-4.9677811c0-0.4174347,0.3365746-0.7674866,0.7674866-0.7674866h19.3695984C65.6483231,38.7779388,65.9983749,39.1279907,65.9983749,39.5454254z"/><path fill="#fff" d="M64.4644623 40.6855965v.5633812c0 .0567207-.0436554.1004372-.1004333.1004372h-.5633812c-.0567207 0-.1004372-.0437164-.1004372-.1004372v-.5633812c0-.0567245.0437164-.1004372.1004372-.1004372h.5633812C64.4208069 40.5851593 64.4644623 40.6288719 64.4644623 40.6855965zM63.0633354 40.6855965v.5633812c0 .0567207-.043663.1004372-.1004372.1004372h-.5633812c-.0567207 0-.1004372-.0437164-.1004372-.1004372v-.5633812c0-.0567245.0437164-.1004372.1004372-.1004372h.5633812C63.0196724 40.5851593 63.0633354 40.6288719 63.0633354 40.6855965zM61.6622009 40.6855965v.5633812c0 .0567207-.0436592.1004372-.1004333.1004372h-.5633812c-.0567245 0-.1004372-.0437164-.1004372-.1004372v-.5633812c0-.0567245.0437126-.1004372.1004372-.1004372h.5633812C61.6185417 40.5851593 61.6622009 40.6288719 61.6622009 40.6855965zM60.2610703 40.6855965v.5633812c0 .0567207-.0436592.1004372-.1004372.1004372h-.5633812c-.0567207 0-.1004333-.0437164-.1004333-.1004372v-.5633812c0-.0567245.0437126-.1004372.1004333-.1004372h.5633812C60.217411 40.5851593 60.2610703 40.6288719 60.2610703 40.6855965zM58.8599396 40.6855965v.5633812c0 .0567207-.043663.1004372-.1004372.1004372h-.5633812c-.0567207 0-.1004372-.0437164-.1004372-.1004372v-.5633812c0-.0567245.0437164-.1004372.1004372-.1004372h.5633812C58.8162766 40.5851593 58.8599396 40.6288719 58.8599396 40.6855965zM64.4644623 41.7476234v.5633812c0 .0567245-.0436554.1004372-.1004333.1004372h-.5633812c-.0567207 0-.1004372-.0437126-.1004372-.1004372v-.5633812c0-.0567207.0437164-.1004333.1004372-.1004333h.5633812C64.4208069 41.6471901 64.4644623 41.6909027 64.4644623 41.7476234zM63.0633354 41.7476234v.5633812c0 .0567245-.043663.1004372-.1004372.1004372h-.5633812c-.0567207 0-.1004372-.0437126-.1004372-.1004372v-.5633812c0-.0567207.0437164-.1004333.1004372-.1004333h.5633812C63.0196724 41.6471901 63.0633354 41.6909027 63.0633354 41.7476234zM61.6622009 41.7476234v.5633812c0 .0567245-.0436592.1004372-.1004333.1004372h-.5633812c-.0567245 0-.1004372-.0437126-.1004372-.1004372v-.5633812c0-.0567207.0437126-.1004333.1004372-.1004333h.5633812C61.6185417 41.6471901 61.6622009 41.6909027 61.6622009 41.7476234zM60.2610703 41.7476234v.5633812c0 .0567245-.0436592.1004372-.1004372.1004372h-.5633812c-.0567207 0-.1004333-.0437126-.1004333-.1004372v-.5633812c0-.0567207.0437126-.1004333.1004333-.1004333h.5633812C60.217411 41.6471901 60.2610703 41.6909027 60.2610703 41.7476234zM58.8599396 41.7476234v.5633812c0 .0567245-.043663.1004372-.1004372.1004372h-.5633812c-.0567207 0-.1004372-.0437126-.1004372-.1004372v-.5633812c0-.0567207.0437164-.1004333.1004372-.1004333h.5633812C58.8162766 41.6471901 58.8599396 41.6909027 58.8599396 41.7476234zM64.4644623 42.8096542v.5633812c0 .0567207-.0436554.1004372-.1004333.1004372h-.5633812c-.0567207 0-.1004372-.0437164-.1004372-.1004372v-.5633812c0-.0567245.0437164-.1004372.1004372-.1004372h.5633812C64.4208069 42.7092171 64.4644623 42.7529297 64.4644623 42.8096542zM63.0633354 42.8096542v.5633812c0 .0567207-.043663.1004372-.1004372.1004372h-.5633812c-.0567207 0-.1004372-.0437164-.1004372-.1004372v-.5633812c0-.0567245.0437164-.1004372.1004372-.1004372h.5633812C63.0196724 42.7092171 63.0633354 42.7529297 63.0633354 42.8096542zM61.6622009 42.8096542v.5633812c0 .0567207-.0436592.1004372-.1004333.1004372h-.5633812c-.0567245 0-.1004372-.0437164-.1004372-.1004372v-.5633812c0-.0567245.0437126-.1004372.1004372-.1004372h.5633812C61.6185417 42.7092171 61.6622009 42.7529297 61.6622009 42.8096542zM60.2610703 42.8096542v.5633812c0 .0567207-.0436592.1004372-.1004372.1004372h-.5633812c-.0567207 0-.1004333-.0437164-.1004333-.1004372v-.5633812c0-.0567245.0437126-.1004372.1004333-.1004372h.5633812C60.217411 42.7092171 60.2610703 42.7529297 60.2610703 42.8096542zM58.8599396 42.8096542v.5633812c0 .0567207-.043663.1004372-.1004372.1004372h-.5633812c-.0567207 0-.1004372-.0437164-.1004372-.1004372v-.5633812c0-.0567245.0437164-.1004372.1004372-.1004372h.5633812C58.8162766 42.7092171 58.8599396 42.7529297 58.8599396 42.8096542z"/><linearGradient id="r" x1="46.803" x2="49.301" y1="42.029" y2="42.029" gradientUnits="userSpaceOnUse"><stop offset="0" stop-color="#15a0ff"/><stop offset=".23" stop-color="#19a4ff"/><stop offset=".48" stop-color="#26b0ff"/><stop offset=".739" stop-color="#3cc4ff"/><stop offset="1" stop-color="#5ae0ff"/></linearGradient><path fill="url(#r)" d="M49.3014908,42.0290413c0,0.6931076-0.565052,1.2464256-1.2523308,1.2464256c-0.6931076,0-1.2464981-0.553318-1.2464981-1.2464256c0-0.6932487,0.5533905-1.2465706,1.2464981-1.2465706C48.7364388,40.7824707,49.3014908,41.3357925,49.3014908,42.0290413z"/><linearGradient id="s" x1="48.802" x2="46.9" y1="41.654" y2="42.602" gradientUnits="userSpaceOnUse"><stop offset="0" stop-color="#15a0ff"/><stop offset=".23" stop-color="#19a4ff"/><stop offset=".48" stop-color="#26b0ff"/><stop offset=".739" stop-color="#3cc4ff"/><stop offset="1" stop-color="#5ae0ff"/></linearGradient><path fill="url(#s)" d="M48.794384,42.0290108c0,0.4117928-0.3357124,0.7405319-0.7440376,0.7405319c-0.4117928,0-0.7405739-0.3287392-0.7405739-0.7405319c0-0.4118729,0.3287811-0.7406158,0.7405739-0.7406158C48.4586716,41.2883949,48.794384,41.6171379,48.794384,42.0290108z"/><linearGradient id="t" x1="51.454" x2="50.81" y1="41.849" y2="42.375" gradientUnits="userSpaceOnUse"><stop offset="0" stop-color="#efefef"/><stop offset=".48" stop-color="#e4e4e4"/><stop offset="1" stop-color="#e0e0e0"/></linearGradient><path fill="url(#t)" d="M52.4862785,42.0290413c0,0.6931076-0.565052,1.2464256-1.2523308,1.2464256c-0.6931076,0-1.2464981-0.553318-1.2464981-1.2464256c0-0.6932487,0.5533905-1.2465706,1.2464981-1.2465706C51.9212265,40.7824707,52.4862785,41.3357925,52.4862785,42.0290413z"/><linearGradient id="u" x1="51.273" x2="51.619" y1="42.001" y2="41.75" gradientUnits="userSpaceOnUse"><stop offset="0" stop-color="#efefef"/><stop offset=".48" stop-color="#e4e4e4"/><stop offset="1" stop-color="#e0e0e0"/></linearGradient><path fill="url(#u)" d="M51.9791718,42.0290108c0,0.4117928-0.3357124,0.7405319-0.7440376,0.7405319c-0.4117928,0-0.7405739-0.3287392-0.7405739-0.7405319c0-0.4118729,0.3287811-0.7406158,0.7405739-0.7406158C51.6434593,41.2883949,51.9791718,41.6171379,51.9791718,42.0290108z"/><g><linearGradient id="v" x1="45.094" x2="65.998" y1="49.577" y2="49.577" gradientUnits="userSpaceOnUse"><stop offset="0" stop-color="#476870"/><stop offset="1" stop-color="#76949b"/></linearGradient><path fill="url(#v)" d="M65.9983749,47.0930443v4.9677849c0,0.4309082-0.3500519,0.7674866-0.7674866,0.7674866H45.86129c-0.430912,0-0.7674866-0.3365784-0.7674866-0.7674866v-4.9677849c0-0.4174309,0.3365746-0.7674828,0.7674866-0.7674828h19.3695984C65.6483231,46.3255615,65.9983749,46.6756134,65.9983749,47.0930443z"/><path fill="#fff" d="M64.4644623 48.2332191v.5633812c0 .0567207-.0436554.1004333-.1004333.1004333h-.5633812c-.0567207 0-.1004372-.0437126-.1004372-.1004333v-.5633812c0-.0567245.0437164-.1004372.1004372-.1004372h.5633812C64.4208069 48.132782 64.4644623 48.1764946 64.4644623 48.2332191zM63.0633354 48.2332191v.5633812c0 .0567207-.043663.1004333-.1004372.1004333h-.5633812c-.0567207 0-.1004372-.0437126-.1004372-.1004333v-.5633812c0-.0567245.0437164-.1004372.1004372-.1004372h.5633812C63.0196724 48.132782 63.0633354 48.1764946 63.0633354 48.2332191zM61.6622009 48.2332191v.5633812c0 .0567207-.0436592.1004333-.1004333.1004333h-.5633812c-.0567245 0-.1004372-.0437126-.1004372-.1004333v-.5633812c0-.0567245.0437126-.1004372.1004372-.1004372h.5633812C61.6185417 48.132782 61.6622009 48.1764946 61.6622009 48.2332191zM60.2610703 48.2332191v.5633812c0 .0567207-.0436592.1004333-.1004372.1004333h-.5633812c-.0567207 0-.1004333-.0437126-.1004333-.1004333v-.5633812c0-.0567245.0437126-.1004372.1004333-.1004372h.5633812C60.217411 48.132782 60.2610703 48.1764946 60.2610703 48.2332191zM58.8599396 48.2332191v.5633812c0 .0567207-.043663.1004333-.1004372.1004333h-.5633812c-.0567207 0-.1004372-.0437126-.1004372-.1004333v-.5633812c0-.0567245.0437164-.1004372.1004372-.1004372h.5633812C58.8162766 48.132782 58.8599396 48.1764946 58.8599396 48.2332191zM64.4644623 49.2952461v.5633812c0 .0567207-.0436554.1004372-.1004333.1004372h-.5633812c-.0567207 0-.1004372-.0437164-.1004372-.1004372v-.5633812c0-.0567207.0437164-.1004372.1004372-.1004372h.5633812C64.4208069 49.194809 64.4644623 49.2385254 64.4644623 49.2952461zM63.0633354 49.2952461v.5633812c0 .0567207-.043663.1004372-.1004372.1004372h-.5633812c-.0567207 0-.1004372-.0437164-.1004372-.1004372v-.5633812c0-.0567207.0437164-.1004372.1004372-.1004372h.5633812C63.0196724 49.194809 63.0633354 49.2385254 63.0633354 49.2952461zM61.6622009 49.2952461v.5633812c0 .0567207-.0436592.1004372-.1004333.1004372h-.5633812c-.0567245 0-.1004372-.0437164-.1004372-.1004372v-.5633812c0-.0567207.0437126-.1004372.1004372-.1004372h.5633812C61.6185417 49.194809 61.6622009 49.2385254 61.6622009 49.2952461zM60.2610703 49.2952461v.5633812c0 .0567207-.0436592.1004372-.1004372.1004372h-.5633812c-.0567207 0-.1004333-.0437164-.1004333-.1004372v-.5633812c0-.0567207.0437126-.1004372.1004333-.1004372h.5633812C60.217411 49.194809 60.2610703 49.2385254 60.2610703 49.2952461zM58.8599396 49.2952461v.5633812c0 .0567207-.043663.1004372-.1004372.1004372h-.5633812c-.0567207 0-.1004372-.0437164-.1004372-.1004372v-.5633812c0-.0567207.0437164-.1004372.1004372-.1004372h.5633812C58.8162766 49.194809 58.8599396 49.2385254 58.8599396 49.2952461zM64.4644623 50.3572769v.5633812c0 .0567207-.0436554.1004333-.1004333.1004333h-.5633812c-.0567207 0-.1004372-.0437126-.1004372-.1004333v-.5633812c0-.0567245.0437164-.1004372.1004372-.1004372h.5633812C64.4208069 50.2568398 64.4644623 50.3005524 64.4644623 50.3572769zM63.0633354 50.3572769v.5633812c0 .0567207-.043663.1004333-.1004372.1004333h-.5633812c-.0567207 0-.1004372-.0437126-.1004372-.1004333v-.5633812c0-.0567245.0437164-.1004372.1004372-.1004372h.5633812C63.0196724 50.2568398 63.0633354 50.3005524 63.0633354 50.3572769zM61.6622009 50.3572769v.5633812c0 .0567207-.0436592.1004333-.1004333.1004333h-.5633812c-.0567245 0-.1004372-.0437126-.1004372-.1004333v-.5633812c0-.0567245.0437126-.1004372.1004372-.1004372h.5633812C61.6185417 50.2568398 61.6622009 50.3005524 61.6622009 50.3572769zM60.2610703 50.3572769v.5633812c0 .0567207-.0436592.1004333-.1004372.1004333h-.5633812c-.0567207 0-.1004333-.0437126-.1004333-.1004333v-.5633812c0-.0567245.0437126-.1004372.1004333-.1004372h.5633812C60.217411 50.2568398 60.2610703 50.3005524 60.2610703 50.3572769zM58.8599396 50.3572769v.5633812c0 .0567207-.043663.1004333-.1004372.1004333h-.5633812c-.0567207 0-.1004372-.0437126-.1004372-.1004333v-.5633812c0-.0567245.0437164-.1004372.1004372-.1004372h.5633812C58.8162766 50.2568398 58.8599396 50.3005524 58.8599396 50.3572769z"/><linearGradient id="w" x1="46.803" x2="49.301" y1="49.577" y2="49.577" gradientUnits="userSpaceOnUse"><stop offset="0" stop-color="#15a0ff"/><stop offset=".23" stop-color="#19a4ff"/><stop offset=".48" stop-color="#26b0ff"/><stop offset=".739" stop-color="#3cc4ff"/><stop offset="1" stop-color="#5ae0ff"/></linearGradient><path fill="url(#w)" d="M49.3014908,49.576664c0,0.6931076-0.565052,1.2464256-1.2523308,1.2464256c-0.6931076,0-1.2464981-0.553318-1.2464981-1.2464256c0-0.6932487,0.5533905-1.2465706,1.2464981-1.2465706C48.7364388,48.3300934,49.3014908,48.8834152,49.3014908,49.576664z"/><linearGradient id="x" x1="48.802" x2="46.9" y1="49.202" y2="50.149" gradientUnits="userSpaceOnUse"><stop offset="0" stop-color="#15a0ff"/><stop offset=".23" stop-color="#19a4ff"/><stop offset=".48" stop-color="#26b0ff"/><stop offset=".739" stop-color="#3cc4ff"/><stop offset="1" stop-color="#5ae0ff"/></linearGradient><path fill="url(#x)" d="M48.794384,49.5766335c0,0.4117928-0.3357124,0.7405319-0.7440376,0.7405319c-0.4117928,0-0.7405739-0.3287392-0.7405739-0.7405319c0-0.4118767,0.3287811-0.7406158,0.7405739-0.7406158C48.4586716,48.8360176,48.794384,49.1647568,48.794384,49.5766335z"/><g><linearGradient id="y" x1="51.954" x2="50.375" y1="49.165" y2="50.068" gradientUnits="userSpaceOnUse"><stop offset="0" stop-color="#efefef"/><stop offset=".48" stop-color="#e4e4e4"/><stop offset="1" stop-color="#e0e0e0"/></linearGradient><path fill="url(#y)" d="M52.4862785,49.576664c0,0.6931076-0.565052,1.2464256-1.2523308,1.2464256c-0.6931076,0-1.2464981-0.553318-1.2464981-1.2464256c0-0.6932487,0.5533905-1.2465706,1.2464981-1.2465706C51.9212265,48.3300934,52.4862785,48.8834152,52.4862785,49.576664z"/><linearGradient id="z" x1="51.179" x2="51.611" y1="49.628" y2="49.235" gradientUnits="userSpaceOnUse"><stop offset="0" stop-color="#efefef"/><stop offset=".48" stop-color="#e4e4e4"/><stop offset="1" stop-color="#e0e0e0"/></linearGradient><path fill="url(#z)" d="M51.9791718,49.5766335c0,0.4117928-0.3357124,0.7405319-0.7440376,0.7405319c-0.4117928,0-0.7405739-0.3287392-0.7405739-0.7405319c0-0.4118767,0.3287811-0.7406158,0.7405739-0.7406158C51.6434593,48.8360176,51.9791718,49.1647568,51.9791718,49.5766335z"/></g></g><linearGradient id="A" x1="55.566" x2="55.532" y1="54.088" y2="52.829" gradientUnits="userSpaceOnUse"><stop offset="0" stop-color="#ffe05f"/><stop offset=".175" stop-color="#ffd24e"/><stop offset=".464" stop-color="#ffc038"/><stop offset=".743" stop-color="#ffb52b"/><stop offset="1" stop-color="#ffb127"/></linearGradient><rect width="16.582" height="1.045" x="47.255" y="52.828" fill="url(#A)"/><g><linearGradient id="B" x1="45.094" x2="65.998" y1="57.125" y2="57.125" gradientUnits="userSpaceOnUse"><stop offset="0" stop-color="#476870"/><stop offset="1" stop-color="#76949b"/></linearGradient><path fill="url(#B)" d="M65.9983749,54.640667v4.9677849c0,0.4309082-0.3500519,0.7674828-0.7674866,0.7674828H45.86129c-0.430912,0-0.7674866-0.3365746-0.7674866-0.7674828V54.640667c0-0.4174309,0.3365746-0.7674828,0.7674866-0.7674828h19.3695984C65.6483231,53.8731842,65.9983749,54.2232361,65.9983749,54.640667z"/><path fill="#fff" d="M64.4644623 55.7808418v.5633812c0 .0567207-.0436554.1004333-.1004333.1004333h-.5633812c-.0567207 0-.1004372-.0437126-.1004372-.1004333v-.5633812c0-.0567245.0437164-.1004372.1004372-.1004372h.5633812C64.4208069 55.6804047 64.4644623 55.7241173 64.4644623 55.7808418zM63.0633354 55.7808418v.5633812c0 .0567207-.043663.1004333-.1004372.1004333h-.5633812c-.0567207 0-.1004372-.0437126-.1004372-.1004333v-.5633812c0-.0567245.0437164-.1004372.1004372-.1004372h.5633812C63.0196724 55.6804047 63.0633354 55.7241173 63.0633354 55.7808418zM61.6622009 55.7808418v.5633812c0 .0567207-.0436592.1004333-.1004333.1004333h-.5633812c-.0567245 0-.1004372-.0437126-.1004372-.1004333v-.5633812c0-.0567245.0437126-.1004372.1004372-.1004372h.5633812C61.6185417 55.6804047 61.6622009 55.7241173 61.6622009 55.7808418zM60.2610703 55.7808418v.5633812c0 .0567207-.0436592.1004333-.1004372.1004333h-.5633812c-.0567207 0-.1004333-.0437126-.1004333-.1004333v-.5633812c0-.0567245.0437126-.1004372.1004333-.1004372h.5633812C60.217411 55.6804047 60.2610703 55.7241173 60.2610703 55.7808418zM58.8599396 55.7808418v.5633812c0 .0567207-.043663.1004333-.1004372.1004333h-.5633812c-.0567207 0-.1004372-.0437126-.1004372-.1004333v-.5633812c0-.0567245.0437164-.1004372.1004372-.1004372h.5633812C58.8162766 55.6804047 58.8599396 55.7241173 58.8599396 55.7808418zM64.4644623 56.8428688V57.40625c0 .0567207-.0436554.1004372-.1004333.1004372h-.5633812c-.0567207 0-.1004372-.0437164-.1004372-.1004372v-.5633812c0-.0567207.0437164-.1004372.1004372-.1004372h.5633812C64.4208069 56.7424316 64.4644623 56.7861481 64.4644623 56.8428688zM63.0633354 56.8428688V57.40625c0 .0567207-.043663.1004372-.1004372.1004372h-.5633812c-.0567207 0-.1004372-.0437164-.1004372-.1004372v-.5633812c0-.0567207.0437164-.1004372.1004372-.1004372h.5633812C63.0196724 56.7424316 63.0633354 56.7861481 63.0633354 56.8428688zM61.6622009 56.8428688V57.40625c0 .0567207-.0436592.1004372-.1004333.1004372h-.5633812c-.0567245 0-.1004372-.0437164-.1004372-.1004372v-.5633812c0-.0567207.0437126-.1004372.1004372-.1004372h.5633812C61.6185417 56.7424316 61.6622009 56.7861481 61.6622009 56.8428688zM60.2610703 56.8428688V57.40625c0 .0567207-.0436592.1004372-.1004372.1004372h-.5633812c-.0567207 0-.1004333-.0437164-.1004333-.1004372v-.5633812c0-.0567207.0437126-.1004372.1004333-.1004372h.5633812C60.217411 56.7424316 60.2610703 56.7861481 60.2610703 56.8428688zM58.8599396 56.8428688V57.40625c0 .0567207-.043663.1004372-.1004372.1004372h-.5633812c-.0567207 0-.1004372-.0437164-.1004372-.1004372v-.5633812c0-.0567207.0437164-.1004372.1004372-.1004372h.5633812C58.8162766 56.7424316 58.8599396 56.7861481 58.8599396 56.8428688zM64.4644623 57.9048996v.5633812c0 .0567207-.0436554.1004333-.1004333.1004333h-.5633812c-.0567207 0-.1004372-.0437126-.1004372-.1004333v-.5633812c0-.0567245.0437164-.1004372.1004372-.1004372h.5633812C64.4208069 57.8044624 64.4644623 57.848175 64.4644623 57.9048996zM63.0633354 57.9048996v.5633812c0 .0567207-.043663.1004333-.1004372.1004333h-.5633812c-.0567207 0-.1004372-.0437126-.1004372-.1004333v-.5633812c0-.0567245.0437164-.1004372.1004372-.1004372h.5633812C63.0196724 57.8044624 63.0633354 57.848175 63.0633354 57.9048996zM61.6622009 57.9048996v.5633812c0 .0567207-.0436592.1004333-.1004333.1004333h-.5633812c-.0567245 0-.1004372-.0437126-.1004372-.1004333v-.5633812c0-.0567245.0437126-.1004372.1004372-.1004372h.5633812C61.6185417 57.8044624 61.6622009 57.848175 61.6622009 57.9048996zM60.2610703 57.9048996v.5633812c0 .0567207-.0436592.1004333-.1004372.1004333h-.5633812c-.0567207 0-.1004333-.0437126-.1004333-.1004333v-.5633812c0-.0567245.0437126-.1004372.1004333-.1004372h.5633812C60.217411 57.8044624 60.2610703 57.848175 60.2610703 57.9048996zM58.8599396 57.9048996v.5633812c0 .0567207-.043663.1004333-.1004372.1004333h-.5633812c-.0567207 0-.1004372-.0437126-.1004372-.1004333v-.5633812c0-.0567245.0437164-.1004372.1004372-.1004372h.5633812C58.8162766 57.8044624 58.8599396 57.848175 58.8599396 57.9048996z"/><linearGradient id="C" x1="46.803" x2="49.301" y1="57.124" y2="57.124" gradientUnits="userSpaceOnUse"><stop offset="0" stop-color="#15a0ff"/><stop offset=".23" stop-color="#19a4ff"/><stop offset=".48" stop-color="#26b0ff"/><stop offset=".739" stop-color="#3cc4ff"/><stop offset="1" stop-color="#5ae0ff"/></linearGradient><path fill="url(#C)" d="M49.3014908,57.1242867c0,0.6931076-0.565052,1.2464256-1.2523308,1.2464256c-0.6931076,0-1.2464981-0.553318-1.2464981-1.2464256c0-0.6932487,0.5533905-1.2465706,1.2464981-1.2465706C48.7364388,55.8777161,49.3014908,56.4310379,49.3014908,57.1242867z"/><linearGradient id="D" x1="48.802" x2="46.9" y1="56.75" y2="57.697" gradientUnits="userSpaceOnUse"><stop offset="0" stop-color="#15a0ff"/><stop offset=".23" stop-color="#19a4ff"/><stop offset=".48" stop-color="#26b0ff"/><stop offset=".739" stop-color="#3cc4ff"/><stop offset="1" stop-color="#5ae0ff"/></linearGradient><path fill="url(#D)" d="M48.794384,57.1242561c0,0.4117928-0.3357124,0.7405319-0.7440376,0.7405319c-0.4117928,0-0.7405739-0.3287392-0.7405739-0.7405319c0-0.4118767,0.3287811-0.7406158,0.7405739-0.7406158C48.4586716,56.3836403,48.794384,56.7123795,48.794384,57.1242561z"/><g><linearGradient id="E" x1="51.464" x2="50.717" y1="56.948" y2="57.521" gradientUnits="userSpaceOnUse"><stop offset="0" stop-color="#efefef"/><stop offset=".48" stop-color="#e4e4e4"/><stop offset="1" stop-color="#e0e0e0"/></linearGradient><path fill="url(#E)" d="M52.4862785,57.1242867c0,0.6931076-0.565052,1.2464256-1.2523308,1.2464256c-0.6931076,0-1.2464981-0.553318-1.2464981-1.2464256c0-0.6932487,0.5533905-1.2465706,1.2464981-1.2465706C51.9212265,55.8777161,52.4862785,56.4310379,52.4862785,57.1242867z"/><linearGradient id="F" x1="51.405" x2="51.829" y1="56.971" y2="56.586" gradientUnits="userSpaceOnUse"><stop offset="0" stop-color="#efefef"/><stop offset=".48" stop-color="#e4e4e4"/><stop offset="1" stop-color="#e0e0e0"/></linearGradient><path fill="url(#F)" d="M51.9791718,57.1242561c0,0.4117928-0.3357124,0.7405319-0.7440376,0.7405319c-0.4117928,0-0.7405739-0.3287392-0.7405739-0.7405319c0-0.4118767,0.3287811-0.7406158,0.7405739-0.7406158C51.6434593,56.3836403,51.9791718,56.7123795,51.9791718,57.1242561z"/></g></g></g></svg>