<svg width="672" height="282" xmlns="http://www.w3.org/2000/svg" xmlns:xlink="http://www.w3.org/1999/xlink" overflow="hidden"><defs><clipPath id="clip0"><rect x="464" y="451" width="672" height="282"/></clipPath><clipPath id="clip1"><rect x="682" y="485" width="244" height="225"/></clipPath><clipPath id="clip2"><rect x="682" y="485" width="244" height="225"/></clipPath><clipPath id="clip3"><rect x="682" y="485" width="244" height="225"/></clipPath><clipPath id="clip4"><rect x="893" y="478" width="244" height="226"/></clipPath><clipPath id="clip5"><rect x="893" y="478" width="244" height="226"/></clipPath><clipPath id="clip6"><rect x="893" y="478" width="244" height="226"/></clipPath><clipPath id="clip7"><rect x="464" y="451" width="305" height="282"/></clipPath><clipPath id="clip8"><rect x="464" y="451" width="305" height="282"/></clipPath><clipPath id="clip9"><rect x="464" y="451" width="305" height="282"/></clipPath></defs><g clip-path="url(#clip0)" transform="translate(-464 -451)"><g clip-path="url(#clip1)"><g clip-path="url(#clip2)"><g clip-path="url(#clip3)"><path d="M214.667 77 219.333 77 219.333 81.6667 214.667 81.6667Z" fill="#FFFFFF" transform="matrix(1.08482 0 0 1 682 485)"/><path d="M205.333 77 210 77 210 81.6667 205.333 81.6667Z" fill="#FFFFFF" transform="matrix(1.08482 0 0 1 682 485)"/><path d="M177.333 77 182 77 182 81.6667 177.333 81.6667Z" fill="#FFFFFF" transform="matrix(1.08482 0 0 1 682 485)"/><path d="M186.667 77 191.333 77 191.333 81.6667 186.667 81.6667Z" fill="#FFFFFF" transform="matrix(1.08482 0 0 1 682 485)"/><path d="M168 77 172.667 77 172.667 81.6667 168 81.6667Z" fill="#FFFFFF" transform="matrix(1.08482 0 0 1 682 485)"/><path d="M196 77 200.667 77 200.667 81.6667 196 81.6667Z" fill="#FFFFFF" transform="matrix(1.08482 0 0 1 682 485)"/><path d="M158.667 77 163.333 77 163.333 81.6667 158.667 81.6667Z" fill="#FFFFFF" transform="matrix(1.08482 0 0 1 682 485)"/><path d="M158.667 58.3334 163.333 58.3334 163.333 63 158.667 63Z" fill="#FFFFFF" transform="matrix(1.08482 0 0 1 682 485)"/><path d="M158.667 67.6667 163.333 67.6667 163.333 72.3334 158.667 72.3334Z" fill="#FFFFFF" transform="matrix(1.08482 0 0 1 682 485)"/><path d="M158.667 30.3334 163.333 30.3334 163.333 35 158.667 35Z" fill="#FFFFFF" transform="matrix(1.08482 0 0 1 682 485)"/><path d="M158.667 49 163.333 49 163.333 53.6667 158.667 53.6667Z" fill="#FFFFFF" transform="matrix(1.08482 0 0 1 682 485)"/><path d="M158.667 39.6667 163.333 39.6667 163.333 44.3334 158.667 44.3334Z" fill="#FFFFFF" transform="matrix(1.08482 0 0 1 682 485)"/><path d="M158.667 21 163.333 21 163.333 25.6667 158.667 25.6667Z" fill="#FFFFFF" transform="matrix(1.08482 0 0 1 682 485)"/><path d="M205.333 21 210 21 210 25.6667 205.333 25.6667Z" fill="#FFFFFF" transform="matrix(1.08482 0 0 1 682 485)"/><path d="M186.667 21 191.333 21 191.333 25.6667 186.667 25.6667Z" fill="#FFFFFF" transform="matrix(1.08482 0 0 1 682 485)"/><path d="M177.333 21 182 21 182 25.6667 177.333 25.6667Z" fill="#FFFFFF" transform="matrix(1.08482 0 0 1 682 485)"/><path d="M168 21 172.667 21 172.667 25.6667 168 25.6667Z" fill="#FFFFFF" transform="matrix(1.08482 0 0 1 682 485)"/><path d="M196 21 200.667 21 200.667 25.6667 196 25.6667Z" fill="#FFFFFF" transform="matrix(1.08482 0 0 1 682 485)"/><path d="M214.667 21 219.333 21 219.333 25.6667 214.667 25.6667Z" fill="#FFFFFF" transform="matrix(1.08482 0 0 1 682 485)"/><path d="M214.667 39.6667 219.333 39.6667 219.333 44.3334 214.667 44.3334Z" fill="#FFFFFF" transform="matrix(1.08482 0 0 1 682 485)"/><path d="M214.667 58.3334 219.333 58.3334 219.333 63 214.667 63Z" fill="#FFFFFF" transform="matrix(1.08482 0 0 1 682 485)"/><path d="M214.667 49 219.333 49 219.333 53.6667 214.667 53.6667Z" fill="#FFFFFF" transform="matrix(1.08482 0 0 1 682 485)"/><path d="M214.667 67.6667 219.333 67.6667 219.333 72.3334 214.667 72.3334Z" fill="#FFFFFF" transform="matrix(1.08482 0 0 1 682 485)"/><path d="M214.667 30.3334 219.333 30.3334 219.333 35 214.667 35Z" fill="#FFFFFF" transform="matrix(1.08482 0 0 1 682 485)"/><path d="M30.3357 46.627 30.3357 51.3334 151.667 51.2937 151.667 46.627 30.3357 46.627Z" fill="#FFFFFF" transform="matrix(1.08482 0 0 1 682 485)"/><path d="M189.009 70 193.676 70 193.676 51.2937 193.676 46.627 189.009 46.627 170.333 46.627 170.333 51.2937 189.009 51.2937 189.009 70Z" fill="#FFFFFF" transform="matrix(1.08482 0 0 1 682 485)"/><path d="M30.3357 114.333 30.3357 149.322 30.3357 153.988 35.0024 153.988 189.009 153.988 193.676 153.988 193.676 149.322 193.676 88.6667 189.009 88.6667 189.009 149.322 35.0024 149.322 35.0024 114.333 30.3357 114.333Z" fill="#FFFFFF" transform="matrix(1.08482 0 0 1 682 485)"/><path d="M23.3333 44.2914C23.3333 41.714 25.4226 39.6247 28 39.6247L151.667 39.6247 151.667 34.958 28 34.958C22.8517 34.9734 18.6821 39.1431 18.6667 44.2914L18.6667 51.3334 23.3333 51.3334Z" fill="#FFFFFF" transform="matrix(1.08482 0 0 1 682 485)"/><path d="M200.667 44.2914 200.667 70 205.333 70 205.333 44.2914C205.318 39.1431 201.148 34.9734 196 34.958L170.333 34.958 170.333 39.6247 196 39.6247C198.578 39.6247 200.667 41.714 200.667 44.2914Z" fill="#FFFFFF" transform="matrix(1.08482 0 0 1 682 485)"/><path d="M200.667 156.333C200.667 158.911 198.578 161 196 161L28 161C25.4226 161 23.3333 158.911 23.3333 156.333L23.3333 114.333 18.6667 114.333 18.6667 156.333C18.6833 161.481 22.8523 165.65 28 165.667L95.6667 165.667 95.6667 189 70 189 70 193.667 154 193.667 154 189 128.333 189 128.333 165.667 196 165.667C201.148 165.65 205.317 161.481 205.333 156.333L205.333 88.6667 200.667 88.6667ZM123.667 189 100.333 189 100.333 165.667 123.667 165.667Z" fill="#FFFFFF" transform="matrix(1.08482 0 0 1 682 485)"/><path d="M65.3334 58.3334 4.66667 58.3334 4.66667 107.333 65.3334 107.333ZM60.6667 102.667 9.33334 102.667 9.33334 63 60.6667 63Z" fill="#FFFFFF" transform="matrix(1.08482 0 0 1 682 485)"/><path d="M21 72.3334 49 72.3334 49 77 21 77Z" fill="#FFFFFF" transform="matrix(1.08482 0 0 1 682 485)"/><path d="M21 86.3334 39.6667 86.3334 39.6667 91.0001 21 91.0001Z" fill="#FFFFFF" transform="matrix(1.08482 0 0 1 682 485)"/><path d="M112 133C130.041 133 144.667 118.375 144.667 100.333 144.667 82.2921 130.041 67.6667 112 67.6667 93.9587 67.6667 79.3334 82.2921 79.3334 100.333 79.3527 118.367 93.9667 132.981 112 133ZM95.6971 123.053C96.0377 114.049 103.613 107.026 112.617 107.367 121.143 107.689 127.98 114.527 128.303 123.053 118.574 130.093 105.426 130.093 95.6971 123.053ZM105 95.6667C105 91.8006 108.134 88.6667 112 88.6667 115.866 88.6667 119 91.8006 119 95.6667 119 99.5328 115.866 102.667 112 102.667 108.134 102.667 105 99.5328 105 95.6667ZM112 72.3334C127.438 72.3096 139.973 84.8053 139.997 100.243 140.008 107.311 137.341 114.12 132.533 119.301 131.069 112.488 126.33 106.84 119.875 104.214 124.627 99.8618 124.951 92.4822 120.599 87.7304 116.247 82.9788 108.867 82.6546 104.116 87.0066 99.3641 91.3582 99.04 98.7381 103.392 103.49 103.622 103.742 103.864 103.983 104.116 104.214 97.6645 106.842 92.9297 112.49 91.4667 119.301 80.9653 107.985 81.6261 90.298 92.9423 79.7965 98.123 74.9892 104.932 72.3224 112 72.3334Z" fill="#FFFFFF" transform="matrix(1.08482 0 0 1 682 485)"/><path d="M176.745 120.419C176.745 120.223 176.549 120.027 176.157 119.831L152.833 112 152.637 112C152.217 112.028 151.882 112.363 151.853 112.784L151.853 112.98 159.5 136.5C159.687 136.867 160.067 137.096 160.48 137.088 160.676 137.088 160.872 136.892 161.068 136.5L163.996 128.497C164.004 128.486 164.018 128.484 164.029 128.492 164.031 128.493 164.032 128.495 164.033 128.497L173.217 137.667 177.333 133.551 168.149 124.367C168.138 124.358 168.137 124.342 168.146 124.331 168.147 124.329 168.148 124.328 168.149 124.327L176.167 121.399C176.531 121.209 176.755 120.829 176.745 120.419Z" fill="#FFFFFF" transform="matrix(1.08482 0 0 1 682 485)"/></g></g></g><g clip-path="url(#clip4)"><g clip-path="url(#clip5)"><g clip-path="url(#clip6)"><path d="M178.125 42.1875C178.125 52.5429 148.744 60.9375 112.5 60.9375 76.2564 60.9375 46.875 52.5429 46.875 42.1875 46.875 31.8322 76.2564 23.4375 112.5 23.4375 148.744 23.4375 178.125 31.8322 178.125 42.1875Z" fill="#FFFFFF" transform="matrix(1.08 0 0 1 893 479)"/><path d="M159.375 89.0626C156.563 89.0626 154.688 87.1876 154.688 84.3751 154.688 81.5626 156.563 79.6876 159.375 79.6876 162.188 79.6876 164.063 81.5626 164.063 84.3751 164.063 87.1876 162.188 89.0626 159.375 89.0626ZM112.5 70.3126C76.4063 70.3126 46.875 61.875 46.875 51.5625L46.875 89.0626C46.875 99.3751 76.4063 107.813 112.5 107.813 148.594 107.813 178.125 99.3751 178.125 89.0626L178.125 51.5625C178.125 61.875 148.594 70.3126 112.5 70.3126Z" fill="#FFFFFF" transform="matrix(1.08 0 0 1 893 479)"/><path d="M159.375 135.938C156.563 135.938 154.688 134.063 154.688 131.25 154.688 128.438 156.563 126.563 159.375 126.563 162.188 126.563 164.063 128.438 164.063 131.25 164.063 134.063 162.188 135.938 159.375 135.938ZM112.5 117.188C76.4063 117.188 46.875 108.75 46.875 98.4376L46.875 135.938C46.875 146.25 76.4063 154.688 112.5 154.688 148.594 154.688 178.125 146.25 178.125 135.938L178.125 98.4376C178.125 108.75 148.594 117.188 112.5 117.188Z" fill="#FFFFFF" transform="matrix(1.08 0 0 1 893 479)"/><path d="M159.375 182.813C156.563 182.813 154.688 180.938 154.688 178.125 154.688 175.313 156.563 173.438 159.375 173.438 162.188 173.438 164.063 175.313 164.063 178.125 164.063 180.938 162.188 182.813 159.375 182.813ZM112.5 164.063C76.4063 164.063 46.875 155.625 46.875 145.313L46.875 182.813C46.875 193.125 76.4063 201.563 112.5 201.563 148.594 201.563 178.125 193.125 178.125 182.813L178.125 145.313C178.125 155.625 148.594 164.063 112.5 164.063Z" fill="#FFFFFF" transform="matrix(1.08 0 0 1 893 479)"/></g></g></g><g clip-path="url(#clip7)"><g clip-path="url(#clip8)"><g clip-path="url(#clip9)"><path d="M41.125 117.5 82.25 117.5 82.25 158.625 41.125 158.625Z" fill="#FFFFFF" transform="matrix(1.08156 0 0 1 464 451)"/><path d="M199.75 117.5 240.875 117.5 240.875 158.625 199.75 158.625Z" fill="#FFFFFF" transform="matrix(1.08156 0 0 1 464 451)"/><path d="M41.125 38.1875 82.25 38.1875 82.25 79.3125 41.125 79.3125Z" fill="#FFFFFF" transform="matrix(1.08156 0 0 1 464 451)"/><path d="M41.125 196.812 82.25 196.812 82.25 237.937 41.125 237.937Z" fill="#FFFFFF" transform="matrix(1.08156 0 0 1 464 451)"/><path d="M146.875 52.875 94 52.875 94 64.625 135.125 64.625 135.125 132.187 94 132.187 94 143.937 135.125 143.937 135.125 211.5 94 211.5 94 223.25 146.875 223.25 146.875 143.937 188 143.937 188 132.187 146.875 132.187 146.875 52.875Z" fill="#FFFFFF" transform="matrix(1.08156 0 0 1 464 451)"/></g></g></g></g></svg>