<svg xmlns="http://www.w3.org/2000/svg" width="194" height="218" fill-rule="evenodd" clip-rule="evenodd" image-rendering="optimizeQuality" shape-rendering="geometricPrecision" text-rendering="geometricPrecision" viewBox="0 0 3982 4478"><path fill="#ffe356" d="M2188 54l1597 922c125,72 197,197 197,341l0 1844c0,145 -72,269 -197,341l-1597 922c-125,72 -269,72 -394,0l-1597 -922c-125,-72 -197,-197 -197,-341l0 -1844c0,-145 72,-269 197,-341l1597 -922c125,-72 269,-72 394,0z"/><ellipse cx="2003" cy="3963" fill="#edb937" rx="972" ry="77"/><path fill="#ecf0f1" d="M1060 1220c3,0 7,0 10,0 50,-140 183,-240 340,-240 42,0 82,7 119,20 42,-299 299,-529 609,-529 328,0 595,256 614,579 175,6 314,150 314,326 0,180 -146,326 -326,326 -578,0 -1107,0 -1681,0 -133,0 -241,-108 -241,-241 0,-133 108,-241 241,-241z"/><path fill="#fff" d="M1047 1187c3,0 7,0 10,0 50,-140 183,-239 340,-239 42,0 82,7 119,20 42,-299 299,-529 609,-529 328,0 595,256 614,579 175,6 314,150 314,326 0,180 -146,326 -326,326 -578,0 -1107,0 -1681,0 -133,0 -241,-108 -241,-241 0,-133 108,-241 241,-241z"/><path fill="#596366" d="M946 2025l2105 0c69,0 126,57 126,126l0 1296 -2356 0 0 -1296c0,-69 57,-126 126,-126z"/><path fill="#8597b1" d="M906 3362l2185 0 0 -1211c0,-22 -18,-40 -40,-40l-2105 0c-22,0 -40,18 -40,40l0 1211z"/><path fill="#fff" d="M3176 3447l0 137c0,69 -62,126 -139,126l-2079 0c-76,0 -139,-57 -139,-126l0 -137 2356 0z"/><circle cx="1998" cy="3574" r="43" fill="#c6cbd6"/><polygon fill="#e4e7ed" points="2270 3908 2470 3973 1527 3973 1688 3908 1688 3711 2270 3711"/><polygon fill="#ecf0f1" points="1688 3908 2270 3908 2470 3973 2470 4000 1998 4000 1527 4000 1527 3973"/><polygon fill="#c6cbd6" points="1688 3711 2270 3711 2270 3908"/><path fill="#ff7069" fill-rule="nonzero" d="M1829 2365c-176,-168 -165,-402 -166,-549l200 0 -320 -437 -320 437 200 0c21,299 178,479 405,549z"/><path fill="#83cf8f" fill-rule="nonzero" d="M2150 1379c176,168 165,402 166,549l-200 0 320 437 320 -437 -200 0c-21,-299 -178,-479 -405,-549z"/></svg>