<svg xmlns="http://www.w3.org/2000/svg" enable-background="new 0 0 66 66" viewBox="0 0 66 66"><rect width="36.9" height="47.3" x="27.2" y="1" fill="#E6E6E8"/><polygon fill="#1576AC" points="44.6 31.8 40 27.2 35.4 31.8 38.1 31.8 38.1 44.1 40 44.1 42.1 44.1 42.1 31.8"/><polygon fill="#1576AC" points="55.8 31.8 51.2 27.2 46.6 31.8 49.3 31.8 49.3 44.1 51.2 44.1 53.3 44.1 53.3 31.8"/><path fill="#E8664A" d="M33.8 10.8V7.4h.6v2.8h1.5v.5H33.8zM36.9 10l-.3.8H36l1.5-3.3h.6l1.5 3.3h-.6L38.6 10H36.9zM38.4 9.5l-.6-1.4-.6 1.4H38.4zM41.4 10.8H40V7.4h1.3c.8 0 1.2.4 1.2.9 0 .4-.2.6-.5.7.4.1.7.4.7.8C42.6 10.3 42.3 10.8 41.4 10.8zM40.5 8.8h.7c.4 0 .6-.1.6-.4 0-.4-.2-.4-.6-.4h-.7V8.8zM40.5 10.2c.8 0 1.5.2 1.5-.5 0-.3-.2-.4-.7-.4h-.8V10.2zM45.7 7.4V8h-1.8v.9h1.6v.5h-1.6v.9h1.8v.5h-2.4V7.4H45.7zM46.4 10.8V7.4H47v2.8h1.5v.5H46.4zM49.1 7.4h.6v3.3h-.6V7.4zM53.1 7.4h.6v3.3H53l-1.9-2.4v2.4h-.6V7.4h.6l1.9 2.5V7.4zM56.8 9.1h.6v1.1c-.9 1-3.1.6-3.1-1.2 0-1.6 1.9-2.2 2.9-1.3l-.3.4c-.7-.6-2-.3-2 .9 0 1.1 1.2 1.4 1.9 1V9.1z"/><rect width="24.1" height="3.5" x="33.3" y="14.2" fill="#B5BABE"/><rect width="24.1" height="3.5" x="33.3" y="20.2" fill="#B5BABE"/><rect width="18.4" height="47.3" x="27.2" y="1" fill="#3B4C56" opacity=".15"/><rect width="35.2" height="29.6" x="10.4" y="35.4" fill="#E0B624"/><rect width="29.2" height="29.6" x="6.5" y="35.4" fill="#ECC625"/><polygon fill="#FAD22C" points="35.6 35.4 41 42 50.9 41.5 45.6 35.4"/><polygon fill="#FAD22C" points="6.5 35.4 2 43.1 31.2 43.5 35.6 35.4"/><g><rect width="7.6" height="10" x="18.4" y="17.7" fill="#E8664A"/><rect width="4" height="10" x="18.4" y="17.7" fill="#D95239"/><polygon fill="#E8664A" points="22.3 33.6 29.7 26.2 14.9 26.2"/><polygon fill="#D95239" points="22.3 33.6 22.3 26.2 29.7 26.2"/></g></svg>